<?xml version="1.0" standalone="no"?>
<!DOCTYPE svg PUBLIC "-//W3C//DTD SVG 20010904//EN"
 "http://www.w3.org/TR/2001/REC-SVG-20010904/DTD/svg10.dtd">
<svg version="1.0" xmlns="http://www.w3.org/2000/svg"
 width="794.000000pt" height="160.000000pt" viewBox="0 0 794.000000 160.000000"
 preserveAspectRatio="xMidYMid meet">
<metadata>
Created by potrace 1.16, written by Peter Selinger 2001-2019
</metadata>
<g transform="translate(0.000000,160.000000) scale(0.100000,-0.100000)"
fill="#000000" stroke="none">
<path d="M2440 1472 c-122 -32 -208 -102 -259 -211 -23 -49 -26 -69 -26 -156
1 -83 5 -109 24 -153 36 -81 124 -156 262 -223 63 -31 130 -69 148 -85 60 -50
76 -125 45 -204 -20 -50 -59 -72 -125 -72 -65 0 -114 18 -188 69 -62 43 -65
44 -81 26 -10 -10 -43 -47 -75 -82 l-58 -65 50 -45 c199 -182 553 -185 723 -5
81 86 119 206 105 334 -19 180 -79 245 -347 379 -128 64 -150 87 -150 155 0
50 19 88 53 107 54 28 169 2 245 -56 18 -14 34 -25 37 -25 2 0 35 37 72 82
l68 81 -44 39 c-125 109 -315 153 -479 110z"/>
<path d="M405 1438 c-3 -10 -222 -922 -290 -1211 l-13 -57 162 0 162 0 19 123
c9 67 20 128 22 134 4 10 40 13 133 13 l128 0 11 -62 c6 -35 16 -96 22 -136
l12 -72 164 0 c152 0 164 1 159 18 -2 9 -71 297 -152 640 l-148 622 -193 0
c-146 0 -195 -3 -198 -12z m244 -498 c23 -140 41 -261 41 -267 0 -10 -25 -13
-91 -13 l-92 0 7 48 c22 168 80 501 86 495 4 -4 26 -123 49 -263z"/>
<path d="M1150 810 l0 -640 244 0 c220 0 251 2 312 21 95 29 133 50 196 108
63 58 98 118 128 221 31 106 40 399 16 521 -33 166 -125 302 -240 355 -97 44
-171 54 -423 54 l-233 0 0 -640z m470 395 c78 -40 101 -115 107 -346 6 -196
-4 -283 -42 -366 -32 -70 -70 -93 -152 -93 l-63 0 0 408 c0 225 3 412 8 416
10 11 109 -2 142 -19z"/>
<path d="M3088 1278 c-2 -95 -2 -383 0 -640 l2 -468 160 0 160 0 0 210 0 210
68 0 c159 0 271 40 352 126 58 61 85 117 101 211 34 193 -31 371 -162 450
-100 60 -181 73 -445 73 l-234 0 -2 -172z m442 -70 c60 -31 82 -89 76 -198 -7
-134 -51 -190 -148 -190 l-48 0 0 205 0 205 38 0 c21 0 58 -10 82 -22z"/>
<path d="M4030 810 l0 -640 160 0 160 0 2 238 3 237 31 3 30 3 99 -241 100
-240 167 0 c93 0 168 4 168 8 0 5 -56 125 -124 268 -124 258 -125 259 -103
274 115 80 178 226 163 376 -15 146 -68 236 -174 292 -98 52 -165 62 -439 62
l-243 0 0 -640z m443 406 c47 -19 66 -46 79 -110 17 -77 -1 -159 -42 -200 -25
-26 -38 -31 -95 -34 l-65 -4 0 181 0 181 45 0 c25 0 60 -6 78 -14z"/>
<path d="M5000 810 l0 -640 350 0 350 0 0 110 0 110 -185 0 -185 0 0 160 0
160 150 0 150 0 0 110 0 110 -150 0 -150 0 0 150 0 150 173 0 174 0 12 88 c7
48 15 97 18 110 l5 22 -356 0 -356 0 0 -640z"/>
<path d="M5810 810 l0 -640 345 0 345 0 0 110 0 110 -182 2 -183 3 -3 158 -3
157 156 0 155 0 0 110 0 110 -155 0 -155 0 0 150 0 150 174 0 174 0 10 63 c6
34 14 83 18 110 l6 47 -351 0 -351 0 0 -640z"/>
<path d="M6650 1428 c0 -13 -16 -291 -35 -618 -19 -327 -35 -605 -35 -617 0
-23 1 -23 150 -23 l150 0 2 496 3 496 59 -409 c32 -224 60 -418 63 -431 5 -22
6 -22 157 -20 l151 3 57 410 c31 226 59 419 61 430 2 11 5 -204 6 -477 l1
-498 156 0 156 0 -6 63 c-3 34 -19 312 -36 617 -17 305 -33 565 -36 578 -4 22
-5 22 -204 22 -110 0 -200 -1 -200 -3 0 -15 -91 -790 -96 -817 -4 -19 -8 -30
-10 -25 -2 6 -26 183 -54 395 -28 212 -53 400 -56 418 l-6 32 -199 0 -199 0 0
-22z"/>
</g>
</svg>
