 <svg  version="1.0" xmlns="http://www.w3.org/2000/svg"  width="300.000000pt" height="300.000000pt" viewBox="0 0 300.000000 300.000000"  preserveAspectRatio="xMidYMid meet">  <g transform="translate(0.000000,300.000000) scale(0.050000,-0.050000)" fill="#3b3537" stroke="none"> <path d="M1180 4282 c-598 -161 -981 -662 -982 -1282 -1 -1178 1400 -1762 2248 -937 88 86 155 163 148 169 -7 7 -36 -15 -64 -49 -236 -280 -782 -428 -1160 -315 -882 264 -1145 1374 -472 1997 456 422 1255 399 1632 -48 28 -34 57 -56 64 -50 27 27 -307 324 -448 398 -283 150 -671 197 -966 117z m-557 -539 c-24 -21 -43 -48 -43 -60 0 -13 -16 -23 -35 -23 -30 -1 -31 -3 -5 -20 22 -14 23 -19 4 -20 -15 0 -21 -9 -14 -20 7 -11 4 -20 -6 -20 -10 0 -16 -22 -13 -49 4 -37 -7 -54 -48 -68 -29 -11 -42 -21 -28 -21 29 -2 34 -82 5 -82 -11 0 -19 -7 -18 -15 7 -43 -6 -68 -47 -86 -43 -19 -43 -20 -2 -12 59 11 70 -255 12 -300 -33 -26 -33 -27 0 -15 45 16 46 -27 1 -76 -29 -32 -29 -36 -2 -26 22 9 37 -5 53 -49 16 -46 15 -61 -3 -61 -19 -1 -19 -4 0 -16 13 -8 26 -51 28 -95 3 -43 13 -90 23 -103 19 -25 5 -66 -22 -66 -8 0 -23 29 -34 65 -11 36 -30 63 -43 60 -28 -5 -11 55 23 82 13 10 8 13 -13 6 -45 -15 -58 33 -60 212 0 80 -11 158 -23 174 -17 21 -17 25 0 15 17 -10 23 19 21 105 -1 65 8 140 20 165 12 25 37 84 57 131 19 47 43 85 53 85 10 0 12 10 4 23 -8 13 3 36 24 51 21 15 35 34 32 42 -9 23 83 124 114 124 19 0 14 -12 -15 -37z m-53 -1383 c-7 -11 2 -35 20 -53 37 -37 30 -53 -17 -35 -36 13 -46 108 -12 108 12 0 16 -9 9 -20z"/> <path d="M969 3419 c-20 -33 -349 -723 -349 -733 0 -3 21 -6 47 -6 39 0 58 23 105 129 l58 130 153 0 153 1 56 -130 c47 -108 65 -130 105 -130 30 0 44 9 37 25 -14 36 -213 463 -285 614 -46 95 -67 121 -80 100z m77 -289 c30 -61 54 -115 54 -120 0 -6 -54 -10 -119 -10 l-119 0 54 119 c66 146 63 146 130 11z"/> <path d="M1440 3057 l0 -383 195 11 c107 6 211 18 231 26 54 21 33 80 -27 75 -27 -3 -110 -11 -184 -18 l-135 -14 0 293 c0 247 5 293 30 293 17 0 30 12 30 26 0 40 -43 74 -94 74 l-46 0 0 -383z"/> <path d="M2222 3393 c-90 -96 -58 -196 107 -341 146 -129 168 -173 122 -243 -47 -72 -152 -68 -216 8 -71 85 -140 40 -72 -47 98 -123 266 -131 357 -16 86 109 43 221 -140 369 -112 91 -143 155 -99 208 34 42 112 36 161 -13 44 -44 98 -39 98 10 0 103 -236 151 -318 65z"/> <path d="M2711 3420 c-3 -5 -5 -172 -3 -370 l2 -360 47 -7 c48 -6 48 -6 40 170 l-7 177 147 10 c238 16 335 235 155 350 -40 25 -369 52 -381 30z m344 -105 c97 -77 6 -200 -150 -203 l-115 -2 -6 97 c-4 54 -2 109 3 122 11 29 229 18 268 -14z"/> <path d="M3320 3059 c0 -363 2 -379 39 -379 36 0 40 16 45 185 l6 185 147 -185 c116 -147 157 -185 197 -185 38 0 46 7 32 25 -11 14 -70 90 -133 169 -132 168 -131 166 -51 166 41 0 80 19 120 58 129 130 38 321 -155 323 -54 1 -131 5 -172 9 l-75 8 0 -379z m345 246 c92 -82 11 -187 -155 -201 l-110 -9 0 129 0 129 115 -9 c63 -5 131 -23 150 -39z"/> <path d="M3933 3427 c-1 -2 0 -171 3 -375 l6 -372 210 0 c205 0 211 1 204 43 -6 41 -16 43 -171 39 l-165 -5 0 132 c0 72 0 137 0 145 0 8 77 12 172 8 169 -5 171 -5 165 41 -7 45 -14 47 -172 47 -90 0 -165 7 -165 15 0 8 0 58 0 110 l0 95 170 -7 c169 -7 170 -7 170 42 0 49 0 49 -212 47 -116 -1 -213 -3 -215 -5z"/> <path d="M4480 3065 c0 -201 7 -365 15 -365 26 0 65 155 65 260 l0 100 70 0 c49 0 70 9 70 30 0 21 -21 30 -70 30 l-70 0 0 115 0 115 170 -7 c167 -7 170 -6 170 40 0 46 -3 47 -210 47 l-210 0 0 -365z"/> <path d="M5094 3420 c-5 -16 -30 -174 -54 -350 -24 -176 -48 -336 -54 -357 -8 -29 0 -35 37 -30 44 7 49 20 76 252 16 135 35 245 41 245 7 0 66 -112 131 -249 66 -137 126 -247 134 -245 8 2 72 121 142 264 l126 260 25 -200 c38 -316 42 -330 84 -330 21 0 38 12 38 26 0 49 -102 723 -111 732 -5 5 -75 -130 -155 -299 l-147 -307 -151 309 c-88 180 -155 296 -162 279z"/> <path d="M1611 3394 c7 -18 56 -41 112 -53 235 -50 336 -262 217 -456 -51 -83 -34 -144 25 -91 147 134 126 435 -40 561 -85 65 -336 96 -314 39z"/> <path d="M4744 3116 c-49 -49 -26 -76 66 -76 83 0 90 4 90 50 0 56 -108 74 -156 26z"/> <path d="M4559 2751 c-55 -55 -18 -71 161 -71 175 0 180 1 180 46 0 50 -294 72 -341 25z"/> </g> </svg> 