<?xml version="1.0" standalone="no"?>
<!DOCTYPE svg PUBLIC "-//W3C//DTD SVG 20010904//EN"
 "http://www.w3.org/TR/2001/REC-SVG-20010904/DTD/svg10.dtd">
<svg version="1.0" xmlns="http://www.w3.org/2000/svg"
 width="1462.000000pt" height="564.000000pt" viewBox="0 0 1462.000000 564.000000"
 preserveAspectRatio="xMidYMid meet">
<metadata>
Created by potrace 1.16, written by Peter Selinger 2001-2019
</metadata>
<g transform="translate(0.000000,564.000000) scale(0.100000,-0.100000)"
fill="#000000" stroke="none">
<path d="M2926 3901 c-9 -10 -21 -33 -26 -52 -14 -46 -13 -1512 0 -1560 19
-69 67 -86 100 -37 13 20 15 128 18 783 2 418 0 778 -3 801 -6 42 -35 84 -59
84 -7 0 -20 -8 -30 -19z"/>
<path d="M6560 3770 c-259 -40 -406 -227 -360 -455 32 -158 125 -232 414 -331
209 -71 264 -116 272 -220 7 -79 -21 -127 -91 -163 -40 -21 -64 -26 -125 -26
-64 0 -83 4 -125 28 -54 30 -100 85 -110 133 -16 69 -4 64 -147 64 l-131 0 6
-52 c17 -166 131 -297 312 -359 60 -20 88 -24 195 -23 146 1 205 15 300 72
119 72 182 184 183 327 0 112 -22 171 -89 245 -64 68 -155 117 -335 179 -197
67 -253 104 -269 178 -31 135 101 234 255 192 58 -16 122 -84 131 -137 l7 -42
135 0 135 0 -7 53 c-20 152 -133 275 -296 321 -71 19 -190 27 -260 16z"/>
<path d="M9848 3752 l-68 -3 0 -679 0 -680 450 0 450 0 0 100 0 100 -325 0
-325 0 0 195 0 195 295 0 295 0 0 100 0 100 -295 0 -295 0 0 185 0 185 325 0
325 0 0 100 0 100 -367 1 c-203 0 -375 1 -383 2 -8 1 -45 1 -82 -1z"/>
<path d="M13227 3752 c-12 -3 -86 -140 -234 -435 l-216 -432 -216 433 -216
432 -147 0 -148 0 0 -680 0 -680 125 0 125 0 2 462 3 462 185 -365 185 -364
100 -3 100 -3 190 373 190 373 3 -467 2 -468 125 0 125 0 0 680 0 680 -27 1
c-126 3 -242 3 -256 1z"/>
<path d="M3611 3083 c-134 -368 -246 -674 -249 -680 -3 -10 26 -13 126 -13
l130 0 28 78 c15 42 40 111 54 152 l28 75 269 3 269 2 27 -82 c15 -46 39 -116
54 -157 l28 -74 129 1 c70 0 129 2 130 4 1 2 -109 307 -245 678 l-247 675
-144 3 -143 3 -244 -668z m484 99 c52 -148 95 -273 95 -276 0 -3 -88 -6 -195
-6 -107 0 -195 1 -195 3 0 1 43 126 95 276 52 150 95 276 95 279 0 19 21 -34
105 -276z"/>
<path d="M4820 3070 l0 -680 295 0 c318 0 391 8 507 55 206 84 333 272 356
529 10 100 1 239 -19 322 -18 75 -71 184 -116 237 -86 103 -232 183 -374 206
-35 6 -196 11 -356 11 l-293 0 0 -680z m590 460 c129 -24 240 -109 278 -213
71 -189 47 -459 -51 -579 -84 -103 -192 -138 -424 -138 l-143 0 0 470 0 470
144 0 c79 0 167 -5 196 -10z"/>
<path d="M7380 3070 c0 -597 2 -680 15 -681 8 0 56 0 105 0 50 0 99 0 110 0
19 1 20 8 20 266 l0 265 181 0 c195 0 261 10 350 55 184 94 259 347 164 553
-46 99 -161 185 -283 211 -33 7 -170 11 -357 11 l-305 0 0 -680z m635 452 c61
-35 87 -80 93 -161 5 -81 -8 -129 -50 -177 -45 -51 -103 -64 -280 -64 l-148 0
0 216 0 216 173 -4 c158 -3 175 -5 212 -26z"/>
<path d="M8560 3070 l0 -680 125 0 125 0 2 268 3 267 104 0 103 0 126 -267
125 -268 143 0 143 0 -138 283 -138 283 63 33 c77 40 126 93 168 180 29 61 31
74 31 171 0 96 -3 110 -31 170 -56 120 -133 183 -264 219 -68 19 -102 21 -382
21 l-308 0 0 -680z m531 471 c139 -18 192 -72 197 -200 3 -64 -1 -83 -20 -121
-25 -49 -70 -84 -127 -100 -20 -5 -102 -10 -183 -10 l-148 0 0 213 c0 118 3
217 7 220 9 10 195 8 274 -2z"/>
<path d="M10910 3070 l0 -680 93 -1 c112 0 741 0 780 0 l27 1 0 100 0 100
-320 0 -320 0 0 195 0 195 290 0 290 0 0 100 0 100 -290 0 -290 0 0 185 0 185
320 0 320 0 0 100 0 100 -450 0 -450 0 0 -680z"/>
</g>
</svg>
